<svg xmlns="http://www.w3.org/2000/svg" version="1.1" viewBox="-5.0 -10.0 110.0 135.0">
    <path fill="rgb(150, 150, 150)"
        d="m89.043 10h-78.086c-0.52734 0-0.95703 0.42969-0.95703 0.95703v14.574c0 0.52734 0.42969 0.95312 0.95703 0.95312 3.5469 0 6.4219 2.875 6.4219 6.4219s-2.875 6.4219-6.4219 6.4219c-0.52734 0-0.95703 0.42969-0.95703 0.95703v48.762-0.003906c0 0.52734 0.42969 0.95703 0.95703 0.95703h53.078c0.52734 0 0.95312-0.42969 0.95312-0.95703 0-3.5469 2.875-6.4219 6.4219-6.4219s6.4219 2.875 6.4219 6.4219c0 0.52734 0.42969 0.95703 0.95703 0.95703h10.254c0.25391 0 0.49609-0.10156 0.67578-0.28125s0.28125-0.42188 0.28125-0.67578v-78.086c0-0.25391-0.10156-0.49609-0.28125-0.67578s-0.42188-0.28125-0.67578-0.28125zm-65.578 66.918v-14.918h14.922v14.922zm16.836-12.055h4.9531c0.51562-0.015625 0.92578-0.44141 0.92578-0.95703s-0.41016-0.94141-0.92578-0.95703h-4.9531v-1.9102c0-0.52734-0.42969-0.95312-0.95703-0.95312h-1.9102v-4.9531c0-0.52734-0.42969-0.95703-0.95703-0.95703-0.52734 0-0.95703 0.42969-0.95703 0.95703v4.9531h-3.6367v-8.8438h56.207v17.258h-47.789zm32.75-37.605c1.1172 0 2.1211 0.67188 2.5508 1.7031 0.42578 1.0312 0.19141 2.2188-0.59766 3.0078-0.78906 0.78906-1.9766 1.0273-3.0078 0.59766-1.0312-0.42578-1.707-1.4336-1.707-2.5469 0.003907-1.5234 1.2383-2.7617 2.7617-2.7617zm6.6406 60.828v0.003906c-0.48828-4.2031-4.0469-7.375-8.2812-7.375-4.2305 0-7.7891 3.1719-8.2773 7.375h-51.223v-41.562h34.191c0.33984 0 0.65625-0.18359 0.82813-0.48047l3.1016-5.375h8.5195l-0.003906 0.003906c0.48828 2.3398 2.6719 3.9336 5.0547 3.6875 2.3789-0.24609 4.1914-2.25 4.1914-4.6445s-1.8125-4.4023-4.1914-4.6484c-2.3828-0.24609-4.5664 1.3477-5.0547 3.6914h-9.0703c-0.34375 0-0.65625 0.18359-0.82812 0.47656l-3.1016 5.375h-33.637v-3.4258c4.2031-0.48828 7.375-4.0469 7.375-8.2812 0-4.2305-3.1719-7.7891-7.375-8.2773v-5.4297h15.289l3.1016 5.375c0.17188 0.29688 0.48438 0.48047 0.82812 0.48047h9.0703c0.49219 2.3438 2.6719 3.9375 5.0547 3.6914 2.3828-0.24609 4.1914-2.2539 4.1914-4.6484 0-2.3945-1.8086-4.4023-4.1914-4.6484-2.3828-0.24609-4.5625 1.3477-5.0547 3.6914h-8.5156l-3.1016-5.375c-0.17188-0.29688-0.48828-0.47656-0.82812-0.47656h-15.844v-5.3789h60.191v13.535c-2.3438 0.48828-3.9375 2.6719-3.6914 5.0547 0.24609 2.3789 2.25 4.1914 4.6445 4.1914 2.3945 0 4.4023-1.8125 4.6484-4.1914 0.24609-2.3828-1.3477-4.5664-3.6914-5.0547v-13.535h14.078v37.422h-57.164c-0.53125 0-0.95703 0.42578-0.95703 0.95312v9.8008h-3.6406v-4.9531c0-0.52734-0.42578-0.95703-0.95703-0.95703-0.52734 0-0.95312 0.42969-0.95312 0.95703v4.9531h-1.9102c-0.52734 0-0.95703 0.42578-0.95703 0.95312v1.9102h-4.9492c-0.26172-0.007813-0.51172 0.089843-0.69922 0.26953-0.18359 0.17969-0.28906 0.42969-0.28906 0.6875s0.10547 0.50781 0.28906 0.6875c0.1875 0.17969 0.4375 0.27734 0.69922 0.26953h4.9531v3.6367h-4.9531c-0.53125 0-0.95703 0.42969-0.95703 0.95703 0 0.52734 0.42578 0.95312 0.95703 0.95312h4.9531v3.6406h-4.9531c-0.53125 0-0.95703 0.42969-0.95703 0.95703 0 0.52734 0.42578 0.95703 0.95703 0.95703h4.9531v1.9102-0.003906c0 0.53125 0.42578 0.95703 0.95312 0.95703h1.9102v4.9531c0 0.53125 0.42969 0.95703 0.95703 0.95703s0.95703-0.42578 0.95703-0.95703v-4.9492h3.6406v4.9531h-0.003906c0.019531 0.51562 0.44141 0.92578 0.95703 0.92578s0.94141-0.41016 0.95703-0.92578v-4.9531h3.6367v4.9531c0 0.52734 0.42969 0.95703 0.95703 0.95703 0.52734 0 0.95703-0.42969 0.95703-0.95703v-4.9531h1.9102-0.003906c0.52734 0 0.95703-0.42969 0.95703-0.95703v-1.9102h4.9531c0.52734 0 0.95703-0.42578 0.95703-0.95312 0-0.53125-0.42969-0.95703-0.95703-0.95703h-4.9492v-3.6406h47.789v17.676zm-19.324-48.367c0-1.1172 0.67187-2.125 1.7031-2.5508 1.0312-0.42969 2.2188-0.19141 3.0078 0.59766s1.0273 1.9766 0.59766 3.0078c-0.42578 1.0312-1.4336 1.7031-2.5508 1.7031-1.5234 0-2.7539-1.2344-2.7578-2.7578zm-18.352-15.617c0-1.1172 0.67188-2.125 1.7031-2.5508 1.0312-0.42969 2.2188-0.19141 3.0078 0.59766 0.78906 0.78906 1.0234 1.9766 0.59766 3.0078-0.42969 1.0312-1.4336 1.7031-2.5508 1.7031-1.5234 0-2.7578-1.2344-2.7578-2.7578zm37.809 30.801-8.7656-0.003906c-0.52734 0-0.95703 0.42969-0.95703 0.95703v3.4258h-6.2148v-3.4336c0-0.25391-0.097657-0.49609-0.27734-0.67578s-0.42578-0.27734-0.67969-0.27734h-8.7617c-0.25391 0-0.5 0.097657-0.67578 0.27734-0.17969 0.17969-0.28125 0.42188-0.28125 0.67578v8.7656c0 0.25391 0.10156 0.49609 0.28125 0.67578 0.17578 0.17969 0.42187 0.28125 0.67578 0.28125h8.7656-0.003906c0.25391 0 0.5-0.10156 0.67969-0.28125 0.17969-0.17969 0.27734-0.42187 0.27734-0.67578v-3.4258h6.2148v3.4258c0 0.52734 0.42578 0.95703 0.95313 0.95703h8.7656c0.52734 0 0.95703-0.42969 0.95703-0.95703v-8.7656c0-0.52734-0.42578-0.95312-0.95312-0.95312zm-17.848 8.7539h-6.8555v-6.8516h6.8516zm16.895 0h-6.8555v-6.8516h6.8516zm5.8984 10.359h-5.1016c-0.52734 0-0.95703 0.42969-0.95703 0.95703v5.1016-0.003907c0 0.53125 0.42969 0.95703 0.95703 0.95703h5.1016c0.52734 0 0.95312-0.42578 0.95312-0.95703v-5.1016 0.003906c0-0.25391-0.10156-0.5-0.28125-0.67578-0.17969-0.17969-0.42188-0.28125-0.67578-0.28125zm-0.95703 5.1016h-3.1914v-3.1875h3.1875zm-27.012-5.1016h-5.1016c-0.52734 0-0.95703 0.42969-0.95703 0.95703v5.1016-0.003907c0 0.53125 0.42969 0.95703 0.95703 0.95703h5.1016c0.52734 0 0.95703-0.42578 0.95703-0.95703v-5.1016 0.003906c0-0.52734-0.42969-0.95703-0.95703-0.95703zm-0.95703 5.1016h-3.1914v-3.1875h3.1875zm20.957-1.5938c0 0.52734-0.42969 0.95312-0.95703 0.95312h-14.984c-0.52734 0-0.95703-0.42578-0.95703-0.95312 0-0.53125 0.42969-0.95703 0.95703-0.95703h14.98c0.25391 0 0.5 0.097656 0.67969 0.27734 0.17969 0.17969 0.28125 0.42578 0.28125 0.67969zm-46.059-48.168c-1.7891 0-3.4023 1.0781-4.0859 2.7305-0.68359 1.6523-0.30859 3.5547 0.95703 4.8164 1.2656 1.2656 3.168 1.6445 4.8203 0.96094 1.6523-0.68359 2.7305-2.2969 2.7305-4.0859-0.003906-2.4414-1.9805-4.4219-4.4219-4.4219zm0 6.9336v-0.003906c-1.0156 0-1.9297-0.60938-2.3203-1.5469-0.38672-0.9375-0.17188-2.0195 0.54297-2.7344 0.71875-0.71875 1.7969-0.93359 2.7383-0.54688 0.9375 0.39062 1.5469 1.3047 1.5469 2.3203 0 1.3867-1.125 2.5078-2.5078 2.5078zm29-20v-0.003906c-1.7891 0-3.4023 1.0781-4.0898 2.7305-0.68359 1.6523-0.30469 3.5586 0.96094 4.8203 1.2656 1.2656 3.168 1.6445 4.8203 0.96094 1.6523-0.6875 2.7305-2.2969 2.7305-4.0859-0.003906-2.4414-1.9805-4.418-4.418-4.4258zm0 6.9336v-0.003906c-1.0156 0-1.9297-0.60938-2.3203-1.5508-0.38672-0.9375-0.17188-2.0156 0.54297-2.7344 0.71875-0.71875 1.7969-0.93359 2.7383-0.54297 0.9375 0.38672 1.5469 1.3047 1.5469 2.3203 0 1.3828-1.1211 2.5039-2.5039 2.5078zm21.359 23.422c1.7891 0 3.3984-1.0742 4.0859-2.7305 0.68359-1.6523 0.30469-3.5547-0.96094-4.8203-1.2656-1.2617-3.168-1.6406-4.8203-0.95703-1.6523 0.68359-2.7305 2.2969-2.7305 4.0859 0.003907 2.4414 1.9844 4.4219 4.4258 4.4219zm0-6.9336v0.003906c1.0117 0 1.9297 0.60938 2.3164 1.5469 0.39062 0.9375 0.17578 2.0195-0.54297 2.7344-0.71875 0.71875-1.7969 0.93359-2.7344 0.54688-0.9375-0.39062-1.5508-1.3047-1.5508-2.3203 0-1.3867 1.125-2.5078 2.5117-2.5078z" />
</svg>