<svg xmlns="http://www.w3.org/2000/svg" xmlns:xlink="http://www.w3.org/1999/xlink" version="1.1" x="0px" y="0px"
    viewBox="0 0 100 100" width="1200pt" height="1200pt">
    <path fill="rgb(150, 150, 150)"
        d="m1.1719 63.23c-0.64844 0-1.1719-0.52344-1.1719-1.1719 0-0.64844 0.52734-1.168 1.1719-1.168h12.492v-9.7188h-12.492c-0.64844 0-1.1719-0.52344-1.1719-1.168 0-0.64844 0.52734-1.1719 1.1719-1.1719h12.492v-9.7148h-12.492c-0.64844 0-1.1719-0.52734-1.1719-1.1719 0-0.64844 0.52734-1.1719 1.1719-1.1719h12.492v-9.7148h-12.492c-0.64844 0-1.1719-0.52344-1.1719-1.1719 0-0.64844 0.52734-1.168 1.1719-1.168h12.492v-6.2539c0-1.3203 0.53906-2.5156 1.4062-3.3828v-0.003906c0.86719-0.87109 2.0664-1.4141 3.3867-1.4141h6.2422v-12.48c0-0.64844 0.52344-1.1719 1.168-1.1719 0.65234 0 1.1719 0.52734 1.1719 1.1719v12.48h9.7148v-12.48c0-0.64844 0.52734-1.1719 1.1719-1.1719 0.64844 0 1.1719 0.52734 1.1719 1.1719v12.48h9.7148v-12.48c0-0.64844 0.52734-1.1719 1.1719-1.1719 0.64844 0 1.168 0.52734 1.168 1.1719v12.48h9.7188v-12.48c0-0.64844 0.52344-1.1719 1.168-1.1719 0.65234 0 1.1719 0.52734 1.1719 1.1719v12.48h9.7148v-12.48c0-0.64844 0.52734-1.1719 1.1719-1.1719 0.64844 0 1.1719 0.52734 1.1719 1.1719v12.48h6.2383c1.3242 0 2.5234 0.53906 3.3906 1.4141l0.066406 0.070313c0.82812 0.86328 1.3398 2.0312 1.3398 3.3164v6.2539h12.492c0.64844 0 1.1719 0.52344 1.1719 1.168 0 0.65234-0.52734 1.1719-1.1719 1.1719h-12.492v9.7148h12.492c0.64844 0 1.1719 0.52734 1.1719 1.1719 0 0.64844-0.52734 1.1719-1.1719 1.1719h-12.492v9.7148h12.492c0.64844 0 1.1719 0.52734 1.1719 1.1719 0 0.64844-0.52734 1.168-1.1719 1.168h-12.492v9.7188h12.492c0.64844 0 1.1719 0.52344 1.1719 1.168 0 0.65234-0.52734 1.1719-1.1719 1.1719h-12.492v9.7148h12.492c0.64844 0 1.1719 0.52734 1.1719 1.1719 0 0.64844-0.52734 1.1719-1.1719 1.1719h-12.492v6.2305c0 1.3164-0.53906 2.5156-1.4141 3.3867l0.003906 0.003906c-0.86719 0.86719-2.0664 1.4062-3.3906 1.4062h-6.2383v12.5c0 0.64844-0.52734 1.1719-1.1719 1.1719-0.64844 0-1.1719-0.52734-1.1719-1.1719v-12.5h-9.7148v12.5c0 0.64844-0.52344 1.1719-1.1719 1.1719-0.64844 0-1.168-0.52734-1.168-1.1719v-12.5h-9.7188v12.5c0 0.64844-0.52344 1.1719-1.168 1.1719-0.64844 0-1.1719-0.52734-1.1719-1.1719v-12.5h-9.7148v12.5c0 0.64844-0.52734 1.1719-1.1719 1.1719-0.64844 0-1.1719-0.52734-1.1719-1.1719v-12.5h-9.7148v12.5c0 0.64844-0.52344 1.1719-1.1719 1.1719-0.64844 0-1.168-0.52734-1.168-1.1719v-12.5h-6.2422c-1.3203 0-2.5195-0.53906-3.3867-1.4062l-0.066406-0.074218c-0.83203-0.86328-1.3398-2.0352-1.3398-3.3164v-6.2305h-12.492c-0.64844 0-1.1719-0.52734-1.1719-1.1719 0-0.64844 0.52734-1.1719 1.1719-1.1719h12.492v-9.7148h-12.492zm34.395-9.2109c-0.035156-0.042969-0.066406-0.089843-0.10547-0.12891l-1.4258-1.4023-2.6797-2.6797 6.5391-6.5742c0.58594-0.63281 2.0195-1.8828 0.97266-2.9805-0.96875-0.95312-2.0234-0.88672-3.2344 0.32422l-1.625 1.5977-6.7891 6.7383c-0.50781 0.50391-0.50391 1.3281 0.003906 1.8281l1.5898 1.5664 4.1211 4.0664c0.066406 0.0625 0.13672 0.10938 0.21094 0.15625l2.8125 2.8203c0.75 1 1.9922 1.3477 2.7695 0.76563 0.77344-0.57422 1.1367-1.7891 0.054688-2.8711l-3.2188-3.2266zm28.715 0c0.03125-0.042969 0.066406-0.089843 0.10547-0.12891l1.4219-1.4023 2.6797-2.6797-6.5391-6.5742c-0.58594-0.63281-2.0195-1.8828-0.96875-2.9805 0.96484-0.95312 2.0234-0.88672 3.2344 0.32422l1.6211 1.5977 7.0469 6.9961c0.36719 0.36328 0.36719 0.95703 0 1.3203l-1.8477 1.8203h-0.003906l-4.1211 4.0664c-0.0625 0.0625-0.13281 0.10938-0.20703 0.15625l-2.8164 2.8203c-0.74219 1-1.9922 1.3477-2.7695 0.76562-0.77344-0.57422-1.1328-1.7891-0.054688-2.8711l3.2227-3.2266zm-9.1016-16.852c0.82031 0.32812 1.2188 1.2656 0.88672 2.082l-9.168 22.691c-0.33203 0.82031-1.2656 1.2148-2.0859 0.88672-0.81641-0.33203-1.2148-1.2656-0.88672-2.0859l9.1719-22.691c0.32812-0.81641 1.2656-1.2148 2.082-0.88281zm-30.074-16.105h49.777c1.1133 0 2.1211 0.45703 2.8516 1.1875 0.72656 0.73047 1.1836 1.7344 1.1836 2.8477v49.777c0 1.1133-0.45703 2.1172-1.1836 2.8477l-0.078125 0.070313c-0.72266 0.69141-1.6992 1.1172-2.7734 1.1172h-49.777c-1.1055 0-2.1172-0.45703-2.8477-1.1875-0.73047-0.73047-1.1836-1.7344-1.1836-2.8477v-49.777c0-1.1133 0.45312-2.1172 1.1836-2.8477 0.73047-0.73047 1.7422-1.1875 2.8477-1.1875zm49.777 2.3477h-49.777c-0.46094 0-0.88672 0.19141-1.1914 0.49609-0.30469 0.30469-0.49609 0.72656-0.49609 1.1914v49.777c0 0.46484 0.19141 0.88672 0.49609 1.1914 0.30469 0.30469 0.73047 0.49609 1.1914 0.49609h49.777c0.44141 0 0.84766-0.16797 1.1484-0.44531l0.042969-0.046876c0.30859-0.30469 0.5-0.72656 0.5-1.1914v-49.777c0-0.46484-0.19141-0.88672-0.5-1.1914-0.30469-0.30469-0.72656-0.49609-1.1914-0.49609zm6.6484-7.4141h-63.074c-0.67188 0-1.2891 0.27344-1.7305 0.72266l-0.003906-0.003906c-0.44141 0.44531-0.71875 1.0586-0.71875 1.7344v63.074c0 0.65625 0.25781 1.25 0.66797 1.6875l0.054687 0.042968c0.44141 0.44531 1.0586 0.72266 1.7305 0.72266h63.074c0.67578 0 1.2891-0.27344 1.7344-0.72266h0.003906c0.4375-0.4375 0.71875-1.0547 0.71875-1.7305v-63.074c0-0.65234-0.25781-1.2461-0.67188-1.6875l-0.046875-0.042969c-0.44531-0.44531-1.0586-0.72266-1.7344-0.72266z" />
</svg>